<svg width="35" height="27" viewBox="0 0 35 27" fill="none" xmlns="http://www.w3.org/2000/svg">
<path d="M11.3181 22.7813C11.4925 22.6071 11.6308 22.4003 11.7251 22.1727C11.8195 21.9451 11.8681 21.7011 11.8681 21.4547C11.8681 21.2083 11.8195 20.9643 11.7251 20.7367C11.6308 20.5091 11.4925 20.3023 11.3181 20.1281L6.56314 15.375H23.125C23.6223 15.375 24.0992 15.1775 24.4508 14.8258C24.8025 14.4742 25 13.9973 25 13.5C25 13.0027 24.8025 12.5258 24.4508 12.1742C24.0992 11.8225 23.6223 11.625 23.125 11.625H6.56314L11.3181 6.87C11.6697 6.51817 11.8671 6.04109 11.867 5.54371C11.8668 5.04633 11.669 4.56939 11.3172 4.21781C10.9654 3.86623 10.4883 3.66882 9.99092 3.66899C9.49353 3.66917 9.01659 3.86692 8.66502 4.21875L0.711267 12.1744C0.359759 12.526 0.162292 13.0028 0.162292 13.5C0.162292 13.9972 0.359759 14.474 0.711267 14.8256L8.66502 22.7794C8.83915 22.9537 9.04595 23.092 9.27357 23.1864C9.50119 23.2807 9.74518 23.3293 9.99158 23.3293C10.238 23.3293 10.482 23.2807 10.7096 23.1864C10.9372 23.092 11.144 22.9537 11.3181 22.7794V22.7813ZM34.375 2.25C34.375 1.75272 34.1775 1.27581 33.8258 0.924175C33.4742 0.572544 32.9973 0.375 32.5 0.375C32.0027 0.375 31.5258 0.572544 31.1742 0.924175C30.8226 1.27581 30.625 1.75272 30.625 2.25V24.75C30.625 25.2473 30.8226 25.7242 31.1742 26.0758C31.5258 26.4275 32.0027 26.625 32.5 26.625C32.9973 26.625 33.4742 26.4275 33.8258 26.0758C34.1775 25.7242 34.375 25.2473 34.375 24.75V2.25Z" fill="#6BA312"/>
</svg>
