<svg width="35" height="31" viewBox="0 0 35 31" fill="none" xmlns="http://www.w3.org/2000/svg">
<path d="M23.6819 6.21875C23.5075 6.39289 23.3692 6.59968 23.2749 6.8273C23.1805 7.05492 23.132 7.29891 23.132 7.54531C23.132 7.79172 23.1805 8.0357 23.2749 8.26332C23.3692 8.49095 23.5075 8.69774 23.6819 8.87188L28.4369 13.625H11.875C11.3777 13.625 10.9008 13.8225 10.5492 14.1742C10.1975 14.5258 10 15.0027 10 15.5C10 15.9973 10.1975 16.4742 10.5492 16.8258C10.9008 17.1775 11.3777 17.375 11.875 17.375H28.4369L23.6819 22.13C23.3303 22.4818 23.1329 22.9589 23.1331 23.4563C23.1332 23.9537 23.331 24.4306 23.6828 24.7822C24.0346 25.1338 24.5117 25.3312 25.0091 25.331C25.5065 25.3308 25.9834 25.1331 26.335 24.7813L34.2887 16.8256C34.6403 16.474 34.8377 15.9972 34.8377 15.5C34.8377 15.0028 34.6403 14.526 34.2887 14.1744L26.335 6.21875C26.1609 6.04442 25.9541 5.90612 25.7264 5.81176C25.4988 5.7174 25.2548 5.66884 25.0084 5.66884C24.762 5.66884 24.518 5.7174 24.2904 5.81176C24.0628 5.90612 23.856 6.04442 23.6819 6.21875ZM0.625 28.625C0.625 29.1223 0.822544 29.5992 1.17417 29.9508C1.52581 30.3025 2.00272 30.5 2.5 30.5C2.99728 30.5 3.47419 30.3025 3.82582 29.9508C4.17746 29.5992 4.375 29.1223 4.375 28.625V2.375C4.375 1.87772 4.17746 1.40081 3.82582 1.04918C3.47419 0.697544 2.99728 0.5 2.5 0.5C2.00272 0.5 1.52581 0.697544 1.17417 1.04918C0.822544 1.40081 0.625 1.87772 0.625 2.375V28.625Z" fill="#6BA312"/>
</svg>
