<svg width="30" height="30" viewBox="0 0 30 30" fill="none" xmlns="http://www.w3.org/2000/svg">
<path d="M13.3333 28.3333C13.3333 28.7754 13.5089 29.1993 13.8215 29.5118C14.134 29.8244 14.558 30 15 30C15.442 30 15.8659 29.8244 16.1785 29.5118C16.4911 29.1993 16.6667 28.7754 16.6667 28.3333V16.6667H28.3333C28.7754 16.6667 29.1993 16.4911 29.5118 16.1785C29.8244 15.8659 30 15.442 30 15C30 14.558 29.8244 14.134 29.5118 13.8215C29.1993 13.5089 28.7754 13.3333 28.3333 13.3333H16.6667V1.66667C16.6667 1.22464 16.4911 0.800716 16.1785 0.488155C15.8659 0.175595 15.442 0 15 0C14.558 0 14.134 0.175595 13.8215 0.488155C13.5089 0.800716 13.3333 1.22464 13.3333 1.66667V13.3333H1.66667C1.22464 13.3333 0.800716 13.5089 0.488155 13.8215C0.175595 14.134 0 14.558 0 15C0 15.442 0.175595 15.8659 0.488155 16.1785C0.800716 16.4911 1.22464 16.6667 1.66667 16.6667H13.3333V28.3333Z" fill="#6BA312"/>
</svg>
